<?xml version="1.0" encoding="us-ascii" standalone="no"?><svg xmlns="http://www.w3.org/2000/svg" xmlns:xlink="http://www.w3.org/1999/xlink" contentstyletype="text/css" data-diagram-type="DESCRIPTION" height="384px" preserveAspectRatio="none" style="width:2392px;height:384px;background:#FFFFFF;" version="1.1" viewBox="0 0 2392 384" width="2392px" zoomAndPan="magnify"><defs><filter height="300%" id="f1c7xdiij7w19" width="300%" x="-1" y="-1"><feGaussianBlur result="blurOut" stdDeviation="2"></feGaussianBlur><feColorMatrix in="blurOut" result="blurOut2" type="matrix" values="0 0 0 0 0 0 0 0 0 0 0 0 0 0 0 0 0 0 .4 0"></feColorMatrix><feOffset dx="4" dy="4" in="blurOut2" result="blurOut3"></feOffset><feBlend in="SourceGraphic" in2="blurOut3" mode="normal"></feBlend></filter></defs><g><!--entity OnSalesStore.ECommerce.Application.DTO--><g class="entity" data-entity="OnSalesStore.ECommerce.Application.DTO" data-source-line="4" data-uid="ent0002" id="entity_OnSalesStore.ECommerce.Application.DTO"><polygon fill="#FEFECE" filter="url(#f1c7xdiij7w19)" points="16,336.48,335.5332,336.48,342.5332,358.7769,359.5332,358.7769,359.5332,375.7769,16,375.7769,16,336.48" style="stroke:#A80036;stroke-width:1;"></polygon><line style="stroke:#A80036;stroke-width:1;" x1="16" x2="342.5332" y1="358.7769" y2="358.7769"></line><text fill="#000000" font-family="sans-serif" font-size="14" lengthAdjust="spacing" textLength="301.5332" x="26" y="352.4751">OnSalesStore.ECommerce.Application.DTO</text></g><!--entity OnSalesStore.ECommerce.Application.Interfaces--><g class="entity" data-entity="OnSalesStore.ECommerce.Application.Interfaces" data-source-line="5" data-uid="ent0003" id="entity_OnSalesStore.ECommerce.Application.Interfaces"><polygon fill="#FEFECE" filter="url(#f1c7xdiij7w19)" points="800.19,229.04,1159.3443,229.04,1166.3443,251.3369,1183.3443,251.3369,1183.3443,268.3369,800.19,268.3369,800.19,229.04" style="stroke:#A80036;stroke-width:1;"></polygon><line style="stroke:#A80036;stroke-width:1;" x1="800.19" x2="1166.3443" y1="251.3369" y2="251.3369"></line><text fill="#000000" font-family="sans-serif" font-size="14" lengthAdjust="spacing" textLength="341.1543" x="810.19" y="245.0351">OnSalesStore.ECommerce.Application.Interfaces</text></g><!--entity OnSalesStore.ECommerce.Application.UseCases--><g class="entity" data-entity="OnSalesStore.ECommerce.Application.UseCases" data-source-line="6" data-uid="ent0004" id="entity_OnSalesStore.ECommerce.Application.UseCases"><polygon fill="#FEFECE" filter="url(#f1c7xdiij7w19)" points="453.32,113.44,810.2116,113.44,817.2116,135.7369,834.2116,135.7369,834.2116,152.7369,453.32,152.7369,453.32,113.44" style="stroke:#A80036;stroke-width:1;"></polygon><line style="stroke:#A80036;stroke-width:1;" x1="453.32" x2="817.2116" y1="135.7369" y2="135.7369"></line><text fill="#000000" font-family="sans-serif" font-size="14" lengthAdjust="spacing" textLength="338.8916" x="463.32" y="129.4351">OnSalesStore.ECommerce.Application.UseCases</text></g><!--entity OnSalesStore.ECommerce.Domain--><g class="entity" data-entity="OnSalesStore.ECommerce.Domain" data-source-line="7" data-uid="ent0005" id="entity_OnSalesStore.ECommerce.Domain"><polygon fill="#FEFECE" filter="url(#f1c7xdiij7w19)" points="665.35,336.48,926.183,336.48,933.183,358.7769,950.183,358.7769,950.183,375.7769,665.35,375.7769,665.35,336.48" style="stroke:#A80036;stroke-width:1;"></polygon><line style="stroke:#A80036;stroke-width:1;" x1="665.35" x2="933.183" y1="358.7769" y2="358.7769"></line><text fill="#000000" font-family="sans-serif" font-size="14" lengthAdjust="spacing" textLength="242.833" x="675.35" y="352.4751">OnSalesStore.ECommerce.Domain</text></g><!--entity OnSalesStore.ECommerce.Infrastructure--><g class="entity" data-entity="OnSalesStore.ECommerce.Infrastructure" data-source-line="8" data-uid="ent0006" id="entity_OnSalesStore.ECommerce.Infrastructure"><polygon fill="#FEFECE" filter="url(#f1c7xdiij7w19)" points="1044.46,113.44,1347.0743,113.44,1354.0743,135.7369,1371.0743,135.7369,1371.0743,152.7369,1044.46,152.7369,1044.46,113.44" style="stroke:#A80036;stroke-width:1;"></polygon><line style="stroke:#A80036;stroke-width:1;" x1="1044.46" x2="1354.0743" y1="135.7369" y2="135.7369"></line><text fill="#000000" font-family="sans-serif" font-size="14" lengthAdjust="spacing" textLength="284.6143" x="1054.46" y="129.4351">OnSalesStore.ECommerce.Infrastructure</text></g><!--entity OnSalesStore.ECommerce.Persistence--><g class="entity" data-entity="OnSalesStore.ECommerce.Persistence" data-source-line="9" data-uid="ent0007" id="entity_OnSalesStore.ECommerce.Persistence"><polygon fill="#FEFECE" filter="url(#f1c7xdiij7w19)" points="1406.23,113.44,1693.313,113.44,1700.313,135.7369,1717.313,135.7369,1717.313,152.7369,1406.23,152.7369,1406.23,113.44" style="stroke:#A80036;stroke-width:1;"></polygon><line style="stroke:#A80036;stroke-width:1;" x1="1406.23" x2="1700.313" y1="135.7369" y2="135.7369"></line><text fill="#000000" font-family="sans-serif" font-size="14" lengthAdjust="spacing" textLength="269.083" x="1416.23" y="129.4351">OnSalesStore.ECommerce.Persistence</text></g><!--entity OnSalesStore.ECommerce.Transversal.Common--><g class="entity" data-entity="OnSalesStore.ECommerce.Transversal.Common" data-source-line="10" data-uid="ent0008" id="entity_OnSalesStore.ECommerce.Transversal.Common"><polygon fill="#FEFECE" filter="url(#f1c7xdiij7w19)" points="985.02,336.48,1340.5034,336.48,1347.5034,358.7769,1364.5034,358.7769,1364.5034,375.7769,985.02,375.7769,985.02,336.48" style="stroke:#A80036;stroke-width:1;"></polygon><line style="stroke:#A80036;stroke-width:1;" x1="985.02" x2="1347.5034" y1="358.7769" y2="358.7769"></line><text fill="#000000" font-family="sans-serif" font-size="14" lengthAdjust="spacing" textLength="337.4834" x="995.02" y="352.4751">OnSalesStore.ECommerce.Transversal.Common</text></g><!--entity OnSalesStore.ECommerce.Services.WebAPI--><g class="entity" data-entity="OnSalesStore.ECommerce.Services.WebAPI" data-source-line="11" data-uid="ent0009" id="entity_OnSalesStore.ECommerce.Services.WebAPI"><polygon fill="#FEFECE" filter="url(#f1c7xdiij7w19)" points="1211.02,6,1534.5044,6,1541.5044,28.2969,1558.5044,28.2969,1558.5044,45.2969,1211.02,45.2969,1211.02,6" style="stroke:#A80036;stroke-width:1;"></polygon><line style="stroke:#A80036;stroke-width:1;" x1="1211.02" x2="1541.5044" y1="28.2969" y2="28.2969"></line><text fill="#000000" font-family="sans-serif" font-size="14" lengthAdjust="spacing" textLength="305.4844" x="1221.02" y="21.9951">OnSalesStore.ECommerce.Services.WebAPI</text></g><!--entity AutoMapper--><g class="entity" data-entity="AutoMapper" data-source-line="12" data-uid="ent0010" id="entity_AutoMapper"><polygon fill="#FFFFFF" filter="url(#f1c7xdiij7w19)" points="432.11,229.04,535.4157,229.04,542.4157,251.3369,559.4157,251.3369,559.4157,268.3369,432.11,268.3369,432.11,229.04" style="stroke:#A80036;stroke-width:1;"></polygon><line style="stroke:#A80036;stroke-width:1;" x1="432.11" x2="542.4157" y1="251.3369" y2="251.3369"></line><text fill="#000000" font-family="sans-serif" font-size="14" lengthAdjust="spacing" textLength="85.3057" x="442.11" y="245.0351">AutoMapper</text></g><!--entity MediatR--><g class="entity" data-entity="MediatR" data-source-line="13" data-uid="ent0011" id="entity_MediatR"><polygon fill="#FFFFFF" filter="url(#f1c7xdiij7w19)" points="594.13,229.04,669.3946,229.04,676.3946,251.3369,693.3946,251.3369,693.3946,268.3369,594.13,268.3369,594.13,229.04" style="stroke:#A80036;stroke-width:1;"></polygon><line style="stroke:#A80036;stroke-width:1;" x1="594.13" x2="676.3946" y1="251.3369" y2="251.3369"></line><text fill="#000000" font-family="sans-serif" font-size="14" lengthAdjust="spacing" textLength="57.2646" x="604.13" y="245.0351">MediatR</text></g><!--entity FluentValidation--><g class="entity" data-entity="FluentValidation" data-source-line="14" data-uid="ent0012" id="entity_FluentValidation"><polygon fill="#FFFFFF" filter="url(#f1c7xdiij7w19)" points="240.76,229.04,372.7698,229.04,379.7698,251.3369,396.7698,251.3369,396.7698,268.3369,240.76,268.3369,240.76,229.04" style="stroke:#A80036;stroke-width:1;"></polygon><line style="stroke:#A80036;stroke-width:1;" x1="240.76" x2="379.7698" y1="251.3369" y2="251.3369"></line><text fill="#000000" font-family="sans-serif" font-size="14" lengthAdjust="spacing" textLength="114.0098" x="250.76" y="245.0351">FluentValidation</text></g><!--entity MassTransit.\nRabbitMQ--><g class="entity" data-entity="MassTransit..nRabbitMQ" data-source-line="15" data-uid="ent0013" id="entity_MassTransit..nRabbitMQ"><polygon fill="#FFFFFF" filter="url(#f1c7xdiij7w19)" points="1357.7,220.89,1463.8289,220.89,1470.8289,259.4838,1487.8289,259.4838,1487.8289,276.4838,1357.7,276.4838,1357.7,220.89" style="stroke:#A80036;stroke-width:1;"></polygon><line style="stroke:#A80036;stroke-width:1;" x1="1357.7" x2="1470.8289" y1="259.4838" y2="259.4838"></line><text fill="#000000" font-family="sans-serif" font-size="14" lengthAdjust="spacing" textLength="88.1289" x="1367.7" y="236.8851">MassTransit.</text><text fill="#000000" font-family="sans-serif" font-size="14" lengthAdjust="spacing" textLength="68.5576" x="1377.4856" y="253.182">RabbitMQ</text></g><!--entity Sendgrid--><g class="entity" data-entity="Sendgrid" data-source-line="16" data-uid="ent0014" id="entity_Sendgrid"><polygon fill="#FFFFFF" filter="url(#f1c7xdiij7w19)" points="1218.43,229.04,1299.1087,229.04,1306.1087,251.3369,1323.1087,251.3369,1323.1087,268.3369,1218.43,268.3369,1218.43,229.04" style="stroke:#A80036;stroke-width:1;"></polygon><line style="stroke:#A80036;stroke-width:1;" x1="1218.43" x2="1306.1087" y1="251.3369" y2="251.3369"></line><text fill="#000000" font-family="sans-serif" font-size="14" lengthAdjust="spacing" textLength="62.6787" x="1228.43" y="245.0351">Sendgrid</text></g><!--entity Bogus--><g class="entity" data-entity="Bogus" data-source-line="17" data-uid="ent0015" id="entity_Bogus"><polygon fill="#FFFFFF" filter="url(#f1c7xdiij7w19)" points="2024.15,229.04,2085.3736,229.04,2092.3736,251.3369,2109.3736,251.3369,2109.3736,268.3369,2024.15,268.3369,2024.15,229.04" style="stroke:#A80036;stroke-width:1;"></polygon><line style="stroke:#A80036;stroke-width:1;" x1="2024.15" x2="2092.3736" y1="251.3369" y2="251.3369"></line><text fill="#000000" font-family="sans-serif" font-size="14" lengthAdjust="spacing" textLength="43.2236" x="2034.15" y="245.0351">Bogus</text></g><!--entity Dapper--><g class="entity" data-entity="Dapper" data-source-line="18" data-uid="ent0016" id="entity_Dapper"><polygon fill="#FFFFFF" filter="url(#f1c7xdiij7w19)" points="1594.02,229.04,1663.522,229.04,1670.522,251.3369,1687.522,251.3369,1687.522,268.3369,1594.02,268.3369,1594.02,229.04" style="stroke:#A80036;stroke-width:1;"></polygon><line style="stroke:#A80036;stroke-width:1;" x1="1594.02" x2="1670.522" y1="251.3369" y2="251.3369"></line><text fill="#000000" font-family="sans-serif" font-size="14" lengthAdjust="spacing" textLength="51.502" x="1604.02" y="245.0351">Dapper</text></g><!--entity Asp.Versioning.\nMvc.ApiExplorer--><g class="entity" data-entity="Asp.Versioning..nMvc.ApiExplorer" data-source-line="19" data-uid="ent0017" id="entity_Asp.Versioning..nMvc.ApiExplorer"><polygon fill="#FFFFFF" filter="url(#f1c7xdiij7w19)" points="1752.04,105.3,1883.5029,105.3,1890.5029,143.8937,1907.5029,143.8937,1907.5029,160.8937,1752.04,160.8937,1752.04,105.3" style="stroke:#A80036;stroke-width:1;"></polygon><line style="stroke:#A80036;stroke-width:1;" x1="1752.04" x2="1890.5029" y1="143.8937" y2="143.8937"></line><text fill="#000000" font-family="sans-serif" font-size="14" lengthAdjust="spacing" textLength="108.876" x="1764.3335" y="121.2951">Asp.Versioning.</text><text fill="#000000" font-family="sans-serif" font-size="14" lengthAdjust="spacing" textLength="113.4629" x="1762.04" y="137.592">Mvc.ApiExplorer</text></g><!--entity AspNetCore.\nHealthChecks.Redis--><g class="entity" data-entity="AspNetCore..nHealthChecks.Redis" data-source-line="20" data-uid="ent0018" id="entity_AspNetCore..nHealthChecks.Redis"><polygon fill="#FFFFFF" filter="url(#f1c7xdiij7w19)" points="1942.17,105.3,2099.3634,105.3,2106.3634,143.8937,2123.3634,143.8937,2123.3634,160.8937,1942.17,160.8937,1942.17,105.3" style="stroke:#A80036;stroke-width:1;"></polygon><line style="stroke:#A80036;stroke-width:1;" x1="1942.17" x2="2106.3634" y1="143.8937" y2="143.8937"></line><text fill="#000000" font-family="sans-serif" font-size="14" lengthAdjust="spacing" textLength="87.4932" x="1978.0201" y="121.2951">AspNetCore.</text><text fill="#000000" font-family="sans-serif" font-size="14" lengthAdjust="spacing" textLength="139.1934" x="1952.17" y="137.592">HealthChecks.Redis</text></g><!--entity Microsoft.AspNetCore.\nAuthentication.JwtBearer--><g class="entity" data-entity="Microsoft.AspNetCore..nAuthentication.JwtBearer" data-source-line="21" data-uid="ent0019" id="entity_Microsoft.AspNetCore..nAuthentication.JwtBearer"><polygon fill="#FFFFFF" filter="url(#f1c7xdiij7w19)" points="2158.16,105.3,2351.3719,105.3,2358.3719,143.8937,2375.3719,143.8937,2375.3719,160.8937,2158.16,160.8937,2158.16,105.3" style="stroke:#A80036;stroke-width:1;"></polygon><line style="stroke:#A80036;stroke-width:1;" x1="2158.16" x2="2358.3719" y1="143.8937" y2="143.8937"></line><text fill="#000000" font-family="sans-serif" font-size="14" lengthAdjust="spacing" textLength="156.208" x="2177.662" y="121.2951">Microsoft.AspNetCore.</text><text fill="#000000" font-family="sans-serif" font-size="14" lengthAdjust="spacing" textLength="175.2119" x="2168.16" y="137.592">Authentication.JwtBearer</text></g><!--entity Microsoft.\nEntityFrameworkCore.SqlServer--><g class="entity" data-entity="Microsoft..nEntityFrameworkCore.SqlServer" data-source-line="22" data-uid="ent0020" id="entity_Microsoft..nEntityFrameworkCore.SqlServer"><polygon fill="#FFFFFF" filter="url(#f1c7xdiij7w19)" points="1722.71,220.89,1964.833,220.89,1971.833,259.4838,1988.833,259.4838,1988.833,276.4838,1722.71,276.4838,1722.71,220.89" style="stroke:#A80036;stroke-width:1;"></polygon><line style="stroke:#A80036;stroke-width:1;" x1="1722.71" x2="1971.833" y1="259.4838" y2="259.4838"></line><text fill="#000000" font-family="sans-serif" font-size="14" lengthAdjust="spacing" textLength="68.7148" x="1810.4141" y="236.8851">Microsoft.</text><text fill="#000000" font-family="sans-serif" font-size="14" lengthAdjust="spacing" textLength="224.123" x="1732.71" y="253.182">EntityFrameworkCore.SqlServer</text></g><!--link OnSalesStore.ECommerce.Application.Interfaces to OnSalesStore.ECommerce.Application.DTO--><g class="link" data-entity-1="OnSalesStore.ECommerce.Application.Interfaces" data-entity-2="OnSalesStore.ECommerce.Application.DTO" data-source-line="24" data-uid="lnk21" id="link_OnSalesStore.ECommerce.Application.Interfaces_OnSalesStore.ECommerce.Application.DTO"><path d="M846.17,268.78 C700.91,287.83 484.9391,333.7678 339.5891,352.8278" fill="none" id="OnSalesStore.ECommerce.Application.Interfaces-to-OnSalesStore.ECommerce.Application.DTO" style="stroke:#A80036;stroke-width:1;stroke-dasharray:7,7;"></path><polygon fill="#A80036" points="333.64,353.6079,343.0837,356.4038,338.5976,352.9579,342.0435,348.4717,333.64,353.6079" style="stroke:#A80036;stroke-width:1;"></polygon></g><!--link OnSalesStore.ECommerce.Application.Interfaces to OnSalesStore.ECommerce.Domain--><g class="link" data-entity-1="OnSalesStore.ECommerce.Application.Interfaces" data-entity-2="OnSalesStore.ECommerce.Domain" data-source-line="25" data-uid="lnk22" id="link_OnSalesStore.ECommerce.Application.Interfaces_OnSalesStore.ECommerce.Domain"><path d="M958.45,268.78 C925.2,287.83 879.6262,313.9574 846.3562,333.0174" fill="none" id="OnSalesStore.ECommerce.Application.Interfaces-to-OnSalesStore.ECommerce.Domain" style="stroke:#A80036;stroke-width:1;stroke-dasharray:7,7;"></path><polygon fill="#A80036" points="841.15,336,850.9476,334.9969,845.4885,333.5145,846.9709,328.0554,841.15,336" style="stroke:#A80036;stroke-width:1;"></polygon></g><!--link OnSalesStore.ECommerce.Application.Interfaces to OnSalesStore.ECommerce.Transversal.Common--><g class="link" data-entity-1="OnSalesStore.ECommerce.Application.Interfaces" data-entity-2="OnSalesStore.ECommerce.Transversal.Common" data-source-line="26" data-uid="lnk23" id="link_OnSalesStore.ECommerce.Application.Interfaces_OnSalesStore.ECommerce.Transversal.Common"><path d="M1024.91,268.78 C1057.97,287.83 1103.2812,313.9446 1136.3612,333.0046" fill="none" id="OnSalesStore.ECommerce.Application.Interfaces-to-OnSalesStore.ECommerce.Transversal.Common" style="stroke:#A80036;stroke-width:1;stroke-dasharray:7,7;"></path><polygon fill="#A80036" points="1141.56,336,1135.7588,328.041,1137.2277,333.5038,1131.7649,334.9727,1141.56,336" style="stroke:#A80036;stroke-width:1;"></polygon></g><!--link OnSalesStore.ECommerce.Application.UseCases to OnSalesStore.ECommerce.Application.DTO--><g class="link" data-entity-1="OnSalesStore.ECommerce.Application.UseCases" data-entity-2="OnSalesStore.ECommerce.Application.DTO" data-source-line="27" data-uid="lnk24" id="link_OnSalesStore.ECommerce.Application.UseCases_OnSalesStore.ECommerce.Application.DTO"><path d="M456.41,153.22 C360.6,166.73 257.06,188.32 222.77,220.89 C190.8,251.24 186.6028,300.8002 186.8328,330.0102" fill="none" id="OnSalesStore.ECommerce.Application.UseCases-to-OnSalesStore.ECommerce.Application.DTO" style="stroke:#A80036;stroke-width:1;stroke-dasharray:7,7;"></path><polygon fill="#A80036" points="186.88,336.01,190.809,326.9788,186.8406,331.0102,182.8093,327.0418,186.88,336.01" style="stroke:#A80036;stroke-width:1;"></polygon></g><!--link OnSalesStore.ECommerce.Application.UseCases to OnSalesStore.ECommerce.Application.Interfaces--><g class="link" data-entity-1="OnSalesStore.ECommerce.Application.UseCases" data-entity-2="OnSalesStore.ECommerce.Application.Interfaces" data-source-line="28" data-uid="lnk25" id="link_OnSalesStore.ECommerce.Application.UseCases_OnSalesStore.ECommerce.Application.Interfaces"><path d="M702.41,153.23 C766.62,174.19 863.276,205.7487 927.476,226.6987" fill="none" id="OnSalesStore.ECommerce.Application.UseCases-to-OnSalesStore.ECommerce.Application.Interfaces" style="stroke:#A80036;stroke-width:1;stroke-dasharray:7,7;"></path><polygon fill="#A80036" points="933.18,228.56,925.8649,221.9653,928.4267,227.0089,923.3831,229.5706,933.18,228.56" style="stroke:#A80036;stroke-width:1;"></polygon></g><!--link OnSalesStore.ECommerce.Application.UseCases to OnSalesStore.ECommerce.Transversal.Common--><g class="link" data-entity-1="OnSalesStore.ECommerce.Application.UseCases" data-entity-2="OnSalesStore.ECommerce.Transversal.Common" data-source-line="29" data-uid="lnk26" id="link_OnSalesStore.ECommerce.Application.UseCases_OnSalesStore.ECommerce.Transversal.Common"><path d="M656.42,153.08 C678.26,184.21 726.15,245.72 782.77,276.48 C825.84,299.89 934.7905,320.493 1029.1305,335.083" fill="none" id="OnSalesStore.ECommerce.Application.UseCases-to-OnSalesStore.ECommerce.Transversal.Common" style="stroke:#A80036;stroke-width:1;stroke-dasharray:7,7;"></path><polygon fill="#A80036" points="1035.06,336,1026.7771,330.6715,1030.1187,335.2358,1025.5544,338.5775,1035.06,336" style="stroke:#A80036;stroke-width:1;"></polygon></g><!--link OnSalesStore.ECommerce.Application.UseCases to AutoMapper--><g class="link" data-entity-1="OnSalesStore.ECommerce.Application.UseCases" data-entity-2="AutoMapper" data-source-line="30" data-uid="lnk27" id="link_OnSalesStore.ECommerce.Application.UseCases_AutoMapper"><path d="M618.99,153.11 C591.67,174.07 552.7298,203.967 525.3798,224.957" fill="none" id="OnSalesStore.ECommerce.Application.UseCases-to-AutoMapper" style="stroke:#A80036;stroke-width:1;stroke-dasharray:7,7;"></path><polygon fill="#A80036" points="520.62,228.61,530.195,226.3038,524.5865,225.5659,525.3244,219.9573,520.62,228.61" style="stroke:#A80036;stroke-width:1;"></polygon></g><!--link OnSalesStore.ECommerce.Application.UseCases to MediatR--><g class="link" data-entity-1="OnSalesStore.ECommerce.Application.UseCases" data-entity-2="MediatR" data-source-line="31" data-uid="lnk28" id="link_OnSalesStore.ECommerce.Application.UseCases_MediatR"><path d="M643.77,153.11 C643.77,174.07 643.77,201.62 643.77,222.61" fill="none" id="OnSalesStore.ECommerce.Application.UseCases-to-MediatR" style="stroke:#A80036;stroke-width:1;stroke-dasharray:7,7;"></path><polygon fill="#A80036" points="643.77,228.61,647.77,219.61,643.77,223.61,639.77,219.61,643.77,228.61" style="stroke:#A80036;stroke-width:1;"></polygon></g><!--link OnSalesStore.ECommerce.Application.UseCases to FluentValidation--><g class="link" data-entity-1="OnSalesStore.ECommerce.Application.UseCases" data-entity-2="FluentValidation" data-source-line="32" data-uid="lnk29" id="link_OnSalesStore.ECommerce.Application.UseCases_FluentValidation"><path d="M589,153.23 C529.03,174.19 439.0941,226.9311 379.1441,247.8811" fill="none" id="OnSalesStore.ECommerce.Application.UseCases-to-FluentValidation" style="stroke:#A80036;stroke-width:1;stroke-dasharray:7,7;"></path><polygon fill="#A80036" points="373.48,249.8604,383.2957,250.6675,378.2001,248.211,380.6566,243.1153,373.48,249.8604" style="stroke:#A80036;stroke-width:1;"></polygon></g><!--link OnSalesStore.ECommerce.Infrastructure to OnSalesStore.ECommerce.Application.Interfaces--><g class="link" data-entity-1="OnSalesStore.ECommerce.Infrastructure" data-entity-2="OnSalesStore.ECommerce.Application.Interfaces" data-source-line="33" data-uid="lnk30" id="link_OnSalesStore.ECommerce.Infrastructure_OnSalesStore.ECommerce.Application.Interfaces"><path d="M1171.61,153.11 C1131.74,174.07 1073.2706,204.8277 1033.3506,225.8177" fill="none" id="OnSalesStore.ECommerce.Infrastructure-to-OnSalesStore.ECommerce.Application.Interfaces" style="stroke:#A80036;stroke-width:1;stroke-dasharray:7,7;"></path><polygon fill="#A80036" points="1028.04,228.61,1037.8675,227.9619,1032.4655,226.283,1034.1444,220.8811,1028.04,228.61" style="stroke:#A80036;stroke-width:1;"></polygon></g><!--link OnSalesStore.ECommerce.Infrastructure to MassTransit.\nRabbitMQ--><g class="link" data-entity-1="OnSalesStore.ECommerce.Infrastructure" data-entity-2="MassTransit..nRabbitMQ" data-source-line="34" data-uid="lnk31" id="link_OnSalesStore.ECommerce.Infrastructure_MassTransit..nRabbitMQ"><path d="M1243.75,153.11 C1278.66,171.55 1326.6749,196.9172 1366.0449,217.7172" fill="none" id="OnSalesStore.ECommerce.Infrastructure-to-MassTransit.\nRabbitMQ" style="stroke:#A80036;stroke-width:1;stroke-dasharray:7,7;"></path><polygon fill="#A80036" points="1371.35,220.52,1365.2609,212.779,1366.9291,218.1843,1361.5238,219.8525,1371.35,220.52" style="stroke:#A80036;stroke-width:1;"></polygon></g><!--link OnSalesStore.ECommerce.Infrastructure to Sendgrid--><g class="link" data-entity-1="OnSalesStore.ECommerce.Infrastructure" data-entity-2="Sendgrid" data-source-line="35" data-uid="lnk32" id="link_OnSalesStore.ECommerce.Infrastructure_Sendgrid"><path d="M1218.31,153.11 C1229.94,174.07 1245.6283,202.3739 1257.2783,223.3639" fill="none" id="OnSalesStore.ECommerce.Infrastructure-to-Sendgrid" style="stroke:#A80036;stroke-width:1;stroke-dasharray:7,7;"></path><polygon fill="#A80036" points="1260.19,228.61,1259.3198,218.7997,1257.7636,224.2382,1252.325,222.682,1260.19,228.61" style="stroke:#A80036;stroke-width:1;"></polygon></g><!--link OnSalesStore.ECommerce.Persistence to OnSalesStore.ECommerce.Application.Interfaces--><g class="link" data-entity-1="OnSalesStore.ECommerce.Persistence" data-entity-2="OnSalesStore.ECommerce.Application.Interfaces" data-source-line="36" data-uid="lnk33" id="link_OnSalesStore.ECommerce.Persistence_OnSalesStore.ECommerce.Application.Interfaces"><path d="M1465.72,153.23 C1360.54,174.19 1198.7643,206.4376 1093.6143,227.3876" fill="none" id="OnSalesStore.ECommerce.Persistence-to-OnSalesStore.ECommerce.Application.Interfaces" style="stroke:#A80036;stroke-width:1;stroke-dasharray:7,7;"></path><polygon fill="#A80036" points="1087.73,228.56,1097.3381,230.7243,1092.6336,227.583,1095.7749,222.8785,1087.73,228.56" style="stroke:#A80036;stroke-width:1;"></polygon></g><!--link OnSalesStore.ECommerce.Persistence to OnSalesStore.ECommerce.Transversal.Common--><g class="link" data-entity-1="OnSalesStore.ECommerce.Persistence" data-entity-2="OnSalesStore.ECommerce.Transversal.Common" data-source-line="37" data-uid="lnk34" id="link_OnSalesStore.ECommerce.Persistence_OnSalesStore.ECommerce.Transversal.Common"><path d="M1559.87,152.95 C1555.74,183.61 1543.08,244.1 1505.77,276.48 C1476.04,302.27 1393.5022,321.4975 1315.5022,334.9875" fill="none" id="OnSalesStore.ECommerce.Persistence-to-OnSalesStore.ECommerce.Transversal.Common" style="stroke:#A80036;stroke-width:1;stroke-dasharray:7,7;"></path><polygon fill="#A80036" points="1309.59,336.01,1319.14,338.4177,1314.5169,335.1579,1317.7767,330.5347,1309.59,336.01" style="stroke:#A80036;stroke-width:1;"></polygon></g><!--link OnSalesStore.ECommerce.Persistence to Bogus--><g class="link" data-entity-1="OnSalesStore.ECommerce.Persistence" data-entity-2="Bogus" data-source-line="38" data-uid="lnk35" id="link_OnSalesStore.ECommerce.Persistence_Bogus"><path d="M1675.43,153.23 C1786.17,172.42 1946.4,201.8 2006.77,220.89 C2013.62,223.06 2015.1985,223.4556 2022.0285,226.3256" fill="none" id="OnSalesStore.ECommerce.Persistence-to-Bogus" style="stroke:#A80036;stroke-width:1;stroke-dasharray:7,7;"></path><polygon fill="#A80036" points="2027.56,228.65,2020.8123,221.4758,2022.9504,226.713,2017.7132,228.8511,2027.56,228.65" style="stroke:#A80036;stroke-width:1;"></polygon></g><!--link OnSalesStore.ECommerce.Persistence to Dapper--><g class="link" data-entity-1="OnSalesStore.ECommerce.Persistence" data-entity-2="Dapper" data-source-line="39" data-uid="lnk36" id="link_OnSalesStore.ECommerce.Persistence_Dapper"><path d="M1574.99,153.11 C1589.57,174.07 1609.4739,202.6944 1624.0739,223.6844" fill="none" id="OnSalesStore.ECommerce.Persistence-to-Dapper" style="stroke:#A80036;stroke-width:1;stroke-dasharray:7,7;"></path><polygon fill="#A80036" points="1627.5,228.61,1625.6446,218.9375,1624.6449,224.5053,1619.0771,223.5056,1627.5,228.61" style="stroke:#A80036;stroke-width:1;"></polygon></g><!--link OnSalesStore.ECommerce.Persistence to Microsoft.\nEntityFrameworkCore.SqlServer--><g class="link" data-entity-1="OnSalesStore.ECommerce.Persistence" data-entity-2="Microsoft..nEntityFrameworkCore.SqlServer" data-source-line="40" data-uid="lnk37" id="link_OnSalesStore.ECommerce.Persistence_Microsoft..nEntityFrameworkCore.SqlServer"><path d="M1611.31,153.23 C1659.01,171.67 1726.0433,197.5674 1779.7433,218.3174" fill="none" id="OnSalesStore.ECommerce.Persistence-to-Microsoft.\nEntityFrameworkCore.SqlServer" style="stroke:#A80036;stroke-width:1;stroke-dasharray:7,7;"></path><polygon fill="#A80036" points="1785.34,220.48,1778.3867,213.505,1780.6761,218.6778,1775.5032,220.9672,1785.34,220.48" style="stroke:#A80036;stroke-width:1;"></polygon></g><!--link OnSalesStore.ECommerce.Services.WebAPI to OnSalesStore.ECommerce.Application.DTO--><g class="link" data-entity-1="OnSalesStore.ECommerce.Services.WebAPI" data-entity-2="OnSalesStore.ECommerce.Application.DTO" data-source-line="41" data-uid="lnk38" id="link_OnSalesStore.ECommerce.Services.WebAPI_OnSalesStore.ECommerce.Application.DTO"><path d="M1210.83,33.79 C977.87,44.6 577.44,67.93 435.77,105.3 C317.4,136.52 251.71,117.75 185.77,220.89 C163.17,256.24 171.6733,302.4761 179.7033,330.2461" fill="none" id="OnSalesStore.ECommerce.Services.WebAPI-to-OnSalesStore.ECommerce.Application.DTO" style="stroke:#A80036;stroke-width:1;stroke-dasharray:7,7;"></path><polygon fill="#A80036" points="181.37,336.01,182.7125,326.2531,179.9811,331.2068,175.0274,328.4753,181.37,336.01" style="stroke:#A80036;stroke-width:1;"></polygon></g><!--link OnSalesStore.ECommerce.Services.WebAPI to OnSalesStore.ECommerce.Application.Interfaces--><g class="link" data-entity-1="OnSalesStore.ECommerce.Services.WebAPI" data-entity-2="OnSalesStore.ECommerce.Application.Interfaces" data-source-line="42" data-uid="lnk39" id="link_OnSalesStore.ECommerce.Services.WebAPI_OnSalesStore.ECommerce.Application.Interfaces"><path d="M1220.39,45.76 C1140.23,58.35 1055.06,77.69 1026.77,105.3 C992.87,138.36 989.5985,192.5422 990.4185,222.9922" fill="none" id="OnSalesStore.ECommerce.Services.WebAPI-to-OnSalesStore.ECommerce.Application.Interfaces" style="stroke:#A80036;stroke-width:1;stroke-dasharray:7,7;"></path><polygon fill="#A80036" points="990.58,228.99,994.3363,219.8856,990.4454,223.9918,986.3392,220.1009,990.58,228.99" style="stroke:#A80036;stroke-width:1;"></polygon></g><!--link OnSalesStore.ECommerce.Services.WebAPI to OnSalesStore.ECommerce.Application.UseCases--><g class="link" data-entity-1="OnSalesStore.ECommerce.Services.WebAPI" data-entity-2="OnSalesStore.ECommerce.Application.UseCases" data-source-line="43" data-uid="lnk40" id="link_OnSalesStore.ECommerce.Services.WebAPI_OnSalesStore.ECommerce.Application.UseCases"><path d="M1250.58,45.74 C1116.7,64.79 918.1102,93.0548 784.1502,112.1148" fill="none" id="OnSalesStore.ECommerce.Services.WebAPI-to-OnSalesStore.ECommerce.Application.UseCases" style="stroke:#A80036;stroke-width:1;stroke-dasharray:7,7;"></path><polygon fill="#A80036" points="778.21,112.96,787.6837,115.6524,783.1601,112.2557,786.5568,107.7321,778.21,112.96" style="stroke:#A80036;stroke-width:1;"></polygon></g><!--link OnSalesStore.ECommerce.Services.WebAPI to OnSalesStore.ECommerce.Infrastructure--><g class="link" data-entity-1="OnSalesStore.ECommerce.Services.WebAPI" data-entity-2="OnSalesStore.ECommerce.Infrastructure" data-source-line="44" data-uid="lnk41" id="link_OnSalesStore.ECommerce.Services.WebAPI_OnSalesStore.ECommerce.Infrastructure"><path d="M1352.71,45.74 C1320.73,64.79 1277.0349,90.8296 1245.0349,109.8896" fill="none" id="OnSalesStore.ECommerce.Services.WebAPI-to-OnSalesStore.ECommerce.Infrastructure" style="stroke:#A80036;stroke-width:1;stroke-dasharray:7,7;"></path><polygon fill="#A80036" points="1239.88,112.96,1249.6592,111.791,1244.1757,110.4014,1245.5654,104.9178,1239.88,112.96" style="stroke:#A80036;stroke-width:1;"></polygon></g><!--link OnSalesStore.ECommerce.Services.WebAPI to OnSalesStore.ECommerce.Persistence--><g class="link" data-entity-1="OnSalesStore.ECommerce.Services.WebAPI" data-entity-2="OnSalesStore.ECommerce.Persistence" data-source-line="45" data-uid="lnk42" id="link_OnSalesStore.ECommerce.Services.WebAPI_OnSalesStore.ECommerce.Persistence"><path d="M1416.82,45.74 C1448.8,64.79 1492.4951,90.8296 1524.4951,109.8896" fill="none" id="OnSalesStore.ECommerce.Services.WebAPI-to-OnSalesStore.ECommerce.Persistence" style="stroke:#A80036;stroke-width:1;stroke-dasharray:7,7;"></path><polygon fill="#A80036" points="1529.65,112.96,1523.9646,104.9178,1525.3543,110.4014,1519.8708,111.791,1529.65,112.96" style="stroke:#A80036;stroke-width:1;"></polygon></g><!--link OnSalesStore.ECommerce.Services.WebAPI to Asp.Versioning.\nMvc.ApiExplorer--><g class="link" data-entity-1="OnSalesStore.ECommerce.Services.WebAPI" data-entity-2="Asp.Versioning..nMvc.ApiExplorer" data-source-line="46" data-uid="lnk43" id="link_OnSalesStore.ECommerce.Services.WebAPI_Asp.Versioning..nMvc.ApiExplorer"><path d="M1476.1,45.76 C1546.91,60.92 1647.38,83.17 1734.77,105.3 C1740.25,106.68 1740.1046,106.6064 1745.7746,108.1264" fill="none" id="OnSalesStore.ECommerce.Services.WebAPI-to-Asp.Versioning.\nMvc.ApiExplorer" style="stroke:#A80036;stroke-width:1;stroke-dasharray:7,7;"></path><polygon fill="#A80036" points="1751.57,109.68,1743.9127,103.486,1746.7405,108.3853,1741.8412,111.2132,1751.57,109.68" style="stroke:#A80036;stroke-width:1;"></polygon></g><!--link OnSalesStore.ECommerce.Services.WebAPI to AspNetCore.\nHealthChecks.Redis--><g class="link" data-entity-1="OnSalesStore.ECommerce.Services.WebAPI" data-entity-2="AspNetCore..nHealthChecks.Redis" data-source-line="47" data-uid="lnk44" id="link_OnSalesStore.ECommerce.Services.WebAPI_AspNetCore..nHealthChecks.Redis"><path d="M1544.96,45.77 C1652.77,59.67 1797.87,80.38 1924.77,105.3 C1930.36,106.39 1930.2403,106.3002 1936.0103,107.5702" fill="none" id="OnSalesStore.ECommerce.Services.WebAPI-to-AspNetCore.\nHealthChecks.Redis" style="stroke:#A80036;stroke-width:1;stroke-dasharray:7,7;"></path><polygon fill="#A80036" points="1941.87,108.86,1933.9402,103.0189,1936.9869,107.7852,1932.2206,110.8319,1941.87,108.86" style="stroke:#A80036;stroke-width:1;"></polygon></g><!--link OnSalesStore.ECommerce.Services.WebAPI to Microsoft.AspNetCore.\nAuthentication.JwtBearer--><g class="link" data-entity-1="OnSalesStore.ECommerce.Services.WebAPI" data-entity-2="Microsoft.AspNetCore..nAuthentication.JwtBearer" data-source-line="48" data-uid="lnk45" id="link_OnSalesStore.ECommerce.Services.WebAPI_Microsoft.AspNetCore..nAuthentication.JwtBearer"><path d="M1558.85,39.49 C1712.52,52.08 1942.32,73.96 2140.77,105.3 C2146.4,106.19 2146.2539,106.1028 2152.0639,107.1428" fill="none" id="OnSalesStore.ECommerce.Services.WebAPI-to-Microsoft.AspNetCore.\nAuthentication.JwtBearer" style="stroke:#A80036;stroke-width:1;stroke-dasharray:7,7;"></path><polygon fill="#A80036" points="2157.97,108.2,2149.8156,102.6768,2153.0482,107.319,2148.406,110.5516,2157.97,108.2" style="stroke:#A80036;stroke-width:1;"></polygon></g><!--SRC=[jLRRSe8m47tdAnpxda_eZDUfdQ5QiVR5bpKic04JcWHj_xw1Ucl5cY3ocEmvcvpT75ObZBUaKEXv6T04Ocornpo055MWXKGow8dr6YL5qicob57GJ73IdutRJe0HroWZeAZSS6yAUw1iK7sn1iQlnuru945fcLETIxmUFq6fcDB8gKNmJ09N6uE0b1IBmk900SeDCyAGTrns9gCZe9DhuKEMeMmzHELtsF8nPA2dP-ljOPeZrtD8MLWAs3uFyK6fyfnCamMVmdB9jFzQ4HWW3sF9megjheXpLR7UBuzRiT5H6PaNIWhEU6po-Xjg2iq6drbgvBW0UK7TAyHQy2U4LAzwAwI98bDp-whiFgEcbKMaoI-iqN5bHDctrFDMTn6gSnuP5dnW8FfhA66DMo6JaYpuI8jodM8zn_PlaL1iENcqVsTD9zY_bAPvgvhVwOtVHvfwzAU6LIlB_LKw-aDDWfsBr5Nnp6iyIyzjl10N-IzudJlHmGizc_z4unTq8dVfi6hY7tjt1Esytn5bxxYUxG-qEHkvYTcchZSbECv6ZT7_7OuQ8_urHRcpNXqVwd7-Er_Ke7GTGBu1]--></g></svg>